<svg width="32" height="32" viewBox="0 0 32 32" fill="none" xmlns="http://www.w3.org/2000/svg">
<path d="M11.0544 16L7.55979 18.052L4.33398 23.722L17.6136 16H11.0544Z" fill="#874691"/>
<path d="M21.1082 10.168L17.6136 12.22L14.334 17.89L27.6136 10.168H21.1082Z" fill="#DA1844"/>
<path d="M17.6136 8.17L14.334 2.5V29.5L17.6136 23.83V8.17Z" fill="#F9B229"/>
<path d="M14.334 2.5L17.6136 8.17L21.1082 10.168H27.6673L14.334 2.5Z" fill="#F07F1A"/>
<path d="M14.334 14.1094V29.4994L17.6136 23.8294V19.7794L14.334 14.1094Z" fill="#72B22C"/>
<path d="M21.1082 21.832L17.6136 23.83L14.334 29.5L27.6136 21.832H21.1082Z" fill="#00743E"/>
<path d="M4.33398 8.33203V23.722L7.61355 18.052V13.948L4.33398 8.33203Z" fill="#5F5A94"/>
<path d="M14.334 14.11L4.33398 8.33203L7.61355 13.948L21.1082 21.832H27.6673L14.334 14.11Z" fill="#0D90CD"/>
</svg>
