<svg width="32" height="32" viewBox="0 0 32 32" fill="none" xmlns="http://www.w3.org/2000/svg">
    <g clip-path="url(#clip0_9435_230095)">
        <path fill-rule="evenodd" clip-rule="evenodd" d="M6.56492 6.60889H25.4345C27.6194 6.60889 29.391 8.38054 29.391 10.5654V20.9132C29.391 23.0981 27.6194 24.8698 25.4345 24.8698H6.56492C4.38005 24.8698 2.6084 23.0981 2.6084 20.9132V10.5654C2.6084 8.38054 4.38005 6.60889 6.56492 6.60889ZM25.4345 8.43497H6.56492C5.38857 8.43497 4.43449 9.38906 4.43449 10.5654V20.9132C4.43449 22.0896 5.38857 23.0437 6.56492 23.0437H25.4345C26.6108 23.0437 27.5649 22.0896 27.5649 20.9132V10.5654C27.5649 9.38906 26.6108 8.43497 25.4345 8.43497Z" fill="#6764FF"/>
        <rect x="3.52148" y="11.4785" width="24.9565" height="2.43478" fill="#6764FF"/>
        <path d="M24.2176 18.7827C24.7218 18.7827 25.1306 19.1915 25.1306 19.6958C25.1306 20.158 24.7871 20.54 24.3415 20.6005L24.2176 20.6088H20.5654C20.0611 20.6088 19.6523 20.2 19.6523 19.6958C19.6523 19.2335 19.9958 18.8515 20.4415 18.791L20.5654 18.7827H24.2176Z" fill="#6764FF"/>
    </g>
    <defs>
        <clipPath id="clip0_9435_230095">
            <rect width="32" height="32" fill="white"/>
        </clipPath>
    </defs>
</svg>
